<mxfile host="app.diagrams.net" agent="Mozilla/5.0 (Windows NT 10.0; Win64; x64; rv:131.0) Gecko/20100101 Firefox/131.0" version="24.9.1">
  <diagram name="Page-1" id="jAGNZNtlkIqWQMn0oknO">
    <mxGraphModel dx="2607" dy="2591" grid="1" gridSize="10" guides="1" tooltips="1" connect="1" arrows="1" fold="1" page="1" pageScale="1" pageWidth="827" pageHeight="1169" math="0" shadow="0">
      <root>
        <mxCell id="0" />
        <mxCell id="1" parent="0" />
        <mxCell id="f9EBJJtAMiZ83KFYTIMu-1" value="Supplier" style="swimlane;childLayout=stackLayout;horizontal=1;startSize=50;horizontalStack=0;rounded=1;fontSize=14;fontStyle=0;strokeWidth=2;resizeParent=0;resizeLast=1;shadow=0;dashed=0;align=center;arcSize=4;whiteSpace=wrap;html=1;" vertex="1" parent="1">
          <mxGeometry x="420" y="-150" width="160" height="140" as="geometry" />
        </mxCell>
        <mxCell id="f9EBJJtAMiZ83KFYTIMu-2" value="SupplierID (PK)&lt;br&gt;&lt;div&gt;Name&lt;/div&gt;&lt;div&gt;ContactPerson&lt;/div&gt;&lt;div&gt;PhoneNumber&lt;/div&gt;&lt;div&gt;Email&lt;br&gt;&lt;/div&gt;" style="align=left;strokeColor=none;fillColor=none;spacingLeft=4;fontSize=12;verticalAlign=top;resizable=0;rotatable=0;part=1;html=1;" vertex="1" parent="f9EBJJtAMiZ83KFYTIMu-1">
          <mxGeometry y="50" width="160" height="90" as="geometry" />
        </mxCell>
        <mxCell id="f9EBJJtAMiZ83KFYTIMu-65" style="edgeStyle=orthogonalEdgeStyle;rounded=0;orthogonalLoop=1;jettySize=auto;html=1;entryX=0.5;entryY=0;entryDx=0;entryDy=0;curved=1;" edge="1" parent="1" source="f9EBJJtAMiZ83KFYTIMu-3" target="f9EBJJtAMiZ83KFYTIMu-14">
          <mxGeometry relative="1" as="geometry">
            <Array as="points">
              <mxPoint x="320" y="140" />
              <mxPoint x="320" y="350" />
              <mxPoint x="200" y="350" />
            </Array>
          </mxGeometry>
        </mxCell>
        <mxCell id="f9EBJJtAMiZ83KFYTIMu-67" style="edgeStyle=orthogonalEdgeStyle;rounded=0;orthogonalLoop=1;jettySize=auto;html=1;entryX=0.5;entryY=0;entryDx=0;entryDy=0;curved=1;" edge="1" parent="1" source="f9EBJJtAMiZ83KFYTIMu-3" target="f9EBJJtAMiZ83KFYTIMu-18">
          <mxGeometry relative="1" as="geometry">
            <Array as="points">
              <mxPoint x="680" y="140" />
              <mxPoint x="680" y="350" />
              <mxPoint x="800" y="350" />
            </Array>
          </mxGeometry>
        </mxCell>
        <mxCell id="f9EBJJtAMiZ83KFYTIMu-70" style="edgeStyle=orthogonalEdgeStyle;rounded=0;orthogonalLoop=1;jettySize=auto;html=1;entryX=0;entryY=0.5;entryDx=0;entryDy=0;curved=1;" edge="1" parent="1" source="f9EBJJtAMiZ83KFYTIMu-3" target="f9EBJJtAMiZ83KFYTIMu-6">
          <mxGeometry relative="1" as="geometry" />
        </mxCell>
        <mxCell id="f9EBJJtAMiZ83KFYTIMu-3" value="Instrument" style="swimlane;childLayout=stackLayout;horizontal=1;startSize=50;horizontalStack=0;rounded=1;fontSize=14;fontStyle=0;strokeWidth=2;resizeParent=0;resizeLast=1;shadow=0;dashed=0;align=center;arcSize=4;whiteSpace=wrap;html=1;" vertex="1" parent="1">
          <mxGeometry x="420" y="30" width="160" height="150" as="geometry" />
        </mxCell>
        <mxCell id="f9EBJJtAMiZ83KFYTIMu-4" value="&lt;div&gt;InstrumentID (PK)&lt;/div&gt;&lt;div&gt;InstrumentName&lt;/div&gt;&lt;div&gt;Category&lt;/div&gt;&lt;div&gt;Manufacturer&lt;/div&gt;&lt;div&gt;Condition&lt;/div&gt;&lt;div&gt;SupplierID (FK)&lt;br&gt;&lt;/div&gt;" style="align=left;strokeColor=none;fillColor=none;spacingLeft=4;fontSize=12;verticalAlign=top;resizable=0;rotatable=0;part=1;html=1;" vertex="1" parent="f9EBJJtAMiZ83KFYTIMu-3">
          <mxGeometry y="50" width="160" height="100" as="geometry" />
        </mxCell>
        <mxCell id="f9EBJJtAMiZ83KFYTIMu-5" value="Maintenance" style="swimlane;childLayout=stackLayout;horizontal=1;startSize=50;horizontalStack=0;rounded=1;fontSize=14;fontStyle=0;strokeWidth=2;resizeParent=0;resizeLast=1;shadow=0;dashed=0;align=center;arcSize=4;whiteSpace=wrap;html=1;" vertex="1" parent="1">
          <mxGeometry x="640" y="-40" width="160" height="140" as="geometry" />
        </mxCell>
        <mxCell id="f9EBJJtAMiZ83KFYTIMu-6" value="&lt;div&gt;MaintenanceID (PK)&lt;/div&gt;&lt;div&gt;InstruentID (FK)&lt;/div&gt;&lt;div&gt;MaintenanceDate&lt;/div&gt;&lt;div&gt;Date&lt;/div&gt;&lt;div&gt;Cost&lt;br&gt;&lt;/div&gt;" style="align=left;strokeColor=none;fillColor=none;spacingLeft=4;fontSize=12;verticalAlign=top;resizable=0;rotatable=0;part=1;html=1;" vertex="1" parent="f9EBJJtAMiZ83KFYTIMu-5">
          <mxGeometry y="50" width="160" height="90" as="geometry" />
        </mxCell>
        <mxCell id="f9EBJJtAMiZ83KFYTIMu-12" value="RentedInstrument" style="swimlane;childLayout=stackLayout;horizontal=1;startSize=50;horizontalStack=0;rounded=1;fontSize=14;fontStyle=0;strokeWidth=2;resizeParent=0;resizeLast=1;shadow=0;dashed=0;align=center;arcSize=4;whiteSpace=wrap;html=1;" vertex="1" parent="1">
          <mxGeometry x="520" y="370" width="160" height="120" as="geometry" />
        </mxCell>
        <mxCell id="f9EBJJtAMiZ83KFYTIMu-13" value="&lt;div&gt;RentedInstrumentID (PK)&lt;/div&gt;&lt;div&gt;InstrumentID (FK)&lt;/div&gt;&lt;div&gt;RentalID (FK)&lt;/div&gt;&lt;div&gt;RentalDuration&lt;br&gt;&lt;/div&gt;" style="align=left;strokeColor=none;fillColor=none;spacingLeft=4;fontSize=12;verticalAlign=top;resizable=0;rotatable=0;part=1;html=1;" vertex="1" parent="f9EBJJtAMiZ83KFYTIMu-12">
          <mxGeometry y="50" width="160" height="70" as="geometry" />
        </mxCell>
        <mxCell id="f9EBJJtAMiZ83KFYTIMu-14" value="SoldInstrument" style="swimlane;childLayout=stackLayout;horizontal=1;startSize=50;horizontalStack=0;rounded=1;fontSize=14;fontStyle=0;strokeWidth=2;resizeParent=0;resizeLast=1;shadow=0;dashed=0;align=center;arcSize=4;whiteSpace=wrap;html=1;" vertex="1" parent="1">
          <mxGeometry x="120" y="370" width="160" height="120" as="geometry" />
        </mxCell>
        <mxCell id="f9EBJJtAMiZ83KFYTIMu-15" value="&lt;div&gt;SoldInstrumentID (PK)&lt;/div&gt;&lt;div&gt;InstrumentID (FK)&lt;/div&gt;&lt;div&gt;SaleID (FK)&lt;/div&gt;&lt;div&gt;WarrantyPeriod&lt;br&gt;&lt;/div&gt;" style="align=left;strokeColor=none;fillColor=none;spacingLeft=4;fontSize=12;verticalAlign=top;resizable=0;rotatable=0;part=1;html=1;" vertex="1" parent="f9EBJJtAMiZ83KFYTIMu-14">
          <mxGeometry y="50" width="160" height="70" as="geometry" />
        </mxCell>
        <mxCell id="f9EBJJtAMiZ83KFYTIMu-16" value="Sale" style="swimlane;childLayout=stackLayout;horizontal=1;startSize=50;horizontalStack=0;rounded=1;fontSize=14;fontStyle=0;strokeWidth=2;resizeParent=0;resizeLast=1;shadow=0;dashed=0;align=center;arcSize=4;whiteSpace=wrap;html=1;" vertex="1" parent="1">
          <mxGeometry x="320" y="370" width="160" height="140" as="geometry" />
        </mxCell>
        <mxCell id="f9EBJJtAMiZ83KFYTIMu-17" value="&lt;div&gt;SaleID (PK)&lt;/div&gt;&lt;div&gt;CustomerID (FK)&lt;/div&gt;&lt;div&gt;InstrumentID (FK)&lt;/div&gt;&lt;div&gt;SaleDate&lt;/div&gt;&lt;div&gt;Price&lt;br&gt;&lt;/div&gt;" style="align=left;strokeColor=none;fillColor=none;spacingLeft=4;fontSize=12;verticalAlign=top;resizable=0;rotatable=0;part=1;html=1;" vertex="1" parent="f9EBJJtAMiZ83KFYTIMu-16">
          <mxGeometry y="50" width="160" height="90" as="geometry" />
        </mxCell>
        <mxCell id="f9EBJJtAMiZ83KFYTIMu-54" style="edgeStyle=orthogonalEdgeStyle;rounded=0;orthogonalLoop=1;jettySize=auto;html=1;" edge="1" parent="1" source="f9EBJJtAMiZ83KFYTIMu-18">
          <mxGeometry relative="1" as="geometry">
            <mxPoint x="680" y="440" as="targetPoint" />
          </mxGeometry>
        </mxCell>
        <mxCell id="f9EBJJtAMiZ83KFYTIMu-18" value="Rental" style="swimlane;childLayout=stackLayout;horizontal=1;startSize=50;horizontalStack=0;rounded=1;fontSize=14;fontStyle=0;strokeWidth=2;resizeParent=0;resizeLast=1;shadow=0;dashed=0;align=center;arcSize=4;whiteSpace=wrap;html=1;" vertex="1" parent="1">
          <mxGeometry x="720" y="370" width="160" height="140" as="geometry" />
        </mxCell>
        <mxCell id="f9EBJJtAMiZ83KFYTIMu-19" value="&lt;div&gt;RentalID (PK)&lt;/div&gt;&lt;div&gt;CustomerID (FK)&lt;/div&gt;&lt;div&gt;InstrumentID (FK)&lt;/div&gt;&lt;div&gt;RentalDate&lt;/div&gt;&lt;div&gt;ReturnDate&lt;br&gt;&lt;/div&gt;" style="align=left;strokeColor=none;fillColor=none;spacingLeft=4;fontSize=12;verticalAlign=top;resizable=0;rotatable=0;part=1;html=1;" vertex="1" parent="f9EBJJtAMiZ83KFYTIMu-18">
          <mxGeometry y="50" width="160" height="90" as="geometry" />
        </mxCell>
        <mxCell id="f9EBJJtAMiZ83KFYTIMu-22" value="Lesson" style="swimlane;childLayout=stackLayout;horizontal=1;startSize=50;horizontalStack=0;rounded=1;fontSize=14;fontStyle=0;strokeWidth=2;resizeParent=0;resizeLast=1;shadow=0;dashed=0;align=center;arcSize=4;whiteSpace=wrap;html=1;" vertex="1" parent="1">
          <mxGeometry x="420" y="730" width="160" height="140" as="geometry" />
        </mxCell>
        <mxCell id="f9EBJJtAMiZ83KFYTIMu-23" value="&lt;div&gt;LessonID (PK)&lt;/div&gt;&lt;div&gt;CustomerID (FK)&lt;/div&gt;&lt;div&gt;InstructorID (FK)&lt;/div&gt;&lt;div&gt;LessonDate&lt;/div&gt;&lt;div&gt;Topic&lt;br&gt;&lt;/div&gt;" style="align=left;strokeColor=none;fillColor=none;spacingLeft=4;fontSize=12;verticalAlign=top;resizable=0;rotatable=0;part=1;html=1;" vertex="1" parent="f9EBJJtAMiZ83KFYTIMu-22">
          <mxGeometry y="50" width="160" height="90" as="geometry" />
        </mxCell>
        <mxCell id="f9EBJJtAMiZ83KFYTIMu-40" style="edgeStyle=orthogonalEdgeStyle;rounded=0;orthogonalLoop=1;jettySize=auto;html=1;entryX=0.5;entryY=0;entryDx=0;entryDy=0;" edge="1" parent="1" source="f9EBJJtAMiZ83KFYTIMu-24" target="f9EBJJtAMiZ83KFYTIMu-33">
          <mxGeometry relative="1" as="geometry" />
        </mxCell>
        <mxCell id="f9EBJJtAMiZ83KFYTIMu-24" value="Instructor" style="swimlane;childLayout=stackLayout;horizontal=1;startSize=50;horizontalStack=0;rounded=1;fontSize=14;fontStyle=0;strokeWidth=2;resizeParent=0;resizeLast=1;shadow=0;dashed=0;align=center;arcSize=4;whiteSpace=wrap;html=1;" vertex="1" parent="1">
          <mxGeometry x="420" y="910" width="160" height="140" as="geometry" />
        </mxCell>
        <mxCell id="f9EBJJtAMiZ83KFYTIMu-25" value="&lt;div&gt;InstructorID (PK)&lt;/div&gt;&lt;div&gt;FirstName&lt;/div&gt;&lt;div&gt;LastName&lt;/div&gt;&lt;div&gt;Email&lt;/div&gt;&lt;div&gt;PhoneNumber&lt;br&gt;&lt;/div&gt;" style="align=left;strokeColor=none;fillColor=none;spacingLeft=4;fontSize=12;verticalAlign=top;resizable=0;rotatable=0;part=1;html=1;" vertex="1" parent="f9EBJJtAMiZ83KFYTIMu-24">
          <mxGeometry y="50" width="160" height="90" as="geometry" />
        </mxCell>
        <mxCell id="f9EBJJtAMiZ83KFYTIMu-45" style="edgeStyle=orthogonalEdgeStyle;rounded=0;orthogonalLoop=1;jettySize=auto;html=1;entryX=0.5;entryY=0;entryDx=0;entryDy=0;" edge="1" parent="1" source="f9EBJJtAMiZ83KFYTIMu-26" target="f9EBJJtAMiZ83KFYTIMu-22">
          <mxGeometry relative="1" as="geometry" />
        </mxCell>
        <mxCell id="f9EBJJtAMiZ83KFYTIMu-49" style="edgeStyle=orthogonalEdgeStyle;rounded=0;orthogonalLoop=1;jettySize=auto;html=1;entryX=0.5;entryY=1;entryDx=0;entryDy=0;curved=1;" edge="1" parent="1" source="f9EBJJtAMiZ83KFYTIMu-26" target="f9EBJJtAMiZ83KFYTIMu-17">
          <mxGeometry relative="1" as="geometry" />
        </mxCell>
        <mxCell id="f9EBJJtAMiZ83KFYTIMu-51" style="edgeStyle=orthogonalEdgeStyle;rounded=0;orthogonalLoop=1;jettySize=auto;html=1;entryX=0.5;entryY=1;entryDx=0;entryDy=0;curved=1;" edge="1" parent="1" source="f9EBJJtAMiZ83KFYTIMu-26" target="f9EBJJtAMiZ83KFYTIMu-19">
          <mxGeometry relative="1" as="geometry" />
        </mxCell>
        <mxCell id="f9EBJJtAMiZ83KFYTIMu-26" value="Customer" style="swimlane;childLayout=stackLayout;horizontal=1;startSize=50;horizontalStack=0;rounded=1;fontSize=14;fontStyle=0;strokeWidth=2;resizeParent=0;resizeLast=1;shadow=0;dashed=0;align=center;arcSize=4;whiteSpace=wrap;html=1;" vertex="1" parent="1">
          <mxGeometry x="420" y="550" width="160" height="140" as="geometry" />
        </mxCell>
        <mxCell id="f9EBJJtAMiZ83KFYTIMu-27" value="&lt;div&gt;CustomerID (PK)&lt;/div&gt;&lt;div&gt;FirstName&lt;/div&gt;&lt;div&gt;LastName&lt;/div&gt;&lt;div&gt;Email&lt;/div&gt;&lt;div&gt;Phone&lt;br&gt;&lt;/div&gt;" style="align=left;strokeColor=none;fillColor=none;spacingLeft=4;fontSize=12;verticalAlign=top;resizable=0;rotatable=0;part=1;html=1;" vertex="1" parent="f9EBJJtAMiZ83KFYTIMu-26">
          <mxGeometry y="50" width="160" height="90" as="geometry" />
        </mxCell>
        <mxCell id="f9EBJJtAMiZ83KFYTIMu-29" value="PhoneNumber" style="swimlane;childLayout=stackLayout;horizontal=1;startSize=50;horizontalStack=0;rounded=1;fontSize=14;fontStyle=0;strokeWidth=2;resizeParent=0;resizeLast=1;shadow=0;dashed=0;align=center;arcSize=4;whiteSpace=wrap;html=1;" vertex="1" parent="1">
          <mxGeometry x="220" y="660" width="160" height="110" as="geometry" />
        </mxCell>
        <mxCell id="f9EBJJtAMiZ83KFYTIMu-30" value="&lt;div&gt;PhoneID (PK)&lt;/div&gt;&lt;div&gt;CustomerID (FK)&lt;/div&gt;&lt;div&gt;PhoneNumber&lt;br&gt;&lt;/div&gt;" style="align=left;strokeColor=none;fillColor=none;spacingLeft=4;fontSize=12;verticalAlign=top;resizable=0;rotatable=0;part=1;html=1;" vertex="1" parent="f9EBJJtAMiZ83KFYTIMu-29">
          <mxGeometry y="50" width="160" height="60" as="geometry" />
        </mxCell>
        <mxCell id="f9EBJJtAMiZ83KFYTIMu-31" value="Address" style="swimlane;childLayout=stackLayout;horizontal=1;startSize=50;horizontalStack=0;rounded=1;fontSize=14;fontStyle=0;strokeWidth=2;resizeParent=0;resizeLast=1;shadow=0;dashed=0;align=center;arcSize=4;whiteSpace=wrap;html=1;" vertex="1" parent="1">
          <mxGeometry x="620" y="660" width="160" height="150" as="geometry" />
        </mxCell>
        <mxCell id="f9EBJJtAMiZ83KFYTIMu-32" value="&lt;div&gt;AddressID (PK)&lt;/div&gt;&lt;div&gt;CustomerID (FK)&lt;/div&gt;&lt;div&gt;Street&lt;/div&gt;&lt;div&gt;City&lt;/div&gt;&lt;div&gt;State&lt;/div&gt;&lt;div&gt;ZIPCode&lt;br&gt;&lt;/div&gt;" style="align=left;strokeColor=none;fillColor=none;spacingLeft=4;fontSize=12;verticalAlign=top;resizable=0;rotatable=0;part=1;html=1;" vertex="1" parent="f9EBJJtAMiZ83KFYTIMu-31">
          <mxGeometry y="50" width="160" height="100" as="geometry" />
        </mxCell>
        <mxCell id="f9EBJJtAMiZ83KFYTIMu-41" style="edgeStyle=orthogonalEdgeStyle;rounded=0;orthogonalLoop=1;jettySize=auto;html=1;entryX=0;entryY=0.25;entryDx=0;entryDy=0;" edge="1" parent="1" source="f9EBJJtAMiZ83KFYTIMu-33" target="f9EBJJtAMiZ83KFYTIMu-36">
          <mxGeometry relative="1" as="geometry" />
        </mxCell>
        <mxCell id="f9EBJJtAMiZ83KFYTIMu-33" value="InstructorExpertise" style="swimlane;childLayout=stackLayout;horizontal=1;startSize=50;horizontalStack=0;rounded=1;fontSize=14;fontStyle=0;strokeWidth=2;resizeParent=0;resizeLast=1;shadow=0;dashed=0;align=center;arcSize=4;whiteSpace=wrap;html=1;" vertex="1" parent="1">
          <mxGeometry x="420" y="1090" width="160" height="120" as="geometry" />
        </mxCell>
        <mxCell id="f9EBJJtAMiZ83KFYTIMu-34" value="&lt;div&gt;InstructorExpertiseID (PK)&lt;/div&gt;&lt;div&gt;InstructorID (FK)&lt;br&gt;&lt;/div&gt;&lt;div&gt;InstrumentTypeID (FK)&lt;/div&gt;&lt;div&gt;ExpertiseLevelID (FK)&lt;br&gt;&lt;/div&gt;" style="align=left;strokeColor=none;fillColor=none;spacingLeft=4;fontSize=12;verticalAlign=top;resizable=0;rotatable=0;part=1;html=1;" vertex="1" parent="f9EBJJtAMiZ83KFYTIMu-33">
          <mxGeometry y="50" width="160" height="70" as="geometry" />
        </mxCell>
        <mxCell id="f9EBJJtAMiZ83KFYTIMu-35" value="ExpertiseLevel" style="swimlane;childLayout=stackLayout;horizontal=1;startSize=50;horizontalStack=0;rounded=1;fontSize=14;fontStyle=0;strokeWidth=2;resizeParent=0;resizeLast=1;shadow=0;dashed=0;align=center;arcSize=4;whiteSpace=wrap;html=1;" vertex="1" parent="1">
          <mxGeometry x="620" y="1090" width="160" height="90" as="geometry" />
        </mxCell>
        <mxCell id="f9EBJJtAMiZ83KFYTIMu-36" value="&lt;div&gt;ExpertiseLevelID (PK)&lt;/div&gt;&lt;div&gt;LevelName&lt;br&gt;&lt;/div&gt;" style="align=left;strokeColor=none;fillColor=none;spacingLeft=4;fontSize=12;verticalAlign=top;resizable=0;rotatable=0;part=1;html=1;" vertex="1" parent="f9EBJJtAMiZ83KFYTIMu-35">
          <mxGeometry y="50" width="160" height="40" as="geometry" />
        </mxCell>
        <mxCell id="f9EBJJtAMiZ83KFYTIMu-37" value="InstrumentType" style="swimlane;childLayout=stackLayout;horizontal=1;startSize=50;horizontalStack=0;rounded=1;fontSize=14;fontStyle=0;strokeWidth=2;resizeParent=0;resizeLast=1;shadow=0;dashed=0;align=center;arcSize=4;whiteSpace=wrap;html=1;" vertex="1" parent="1">
          <mxGeometry x="220" y="1090" width="160" height="100" as="geometry" />
        </mxCell>
        <mxCell id="f9EBJJtAMiZ83KFYTIMu-38" value="&lt;div&gt;InstrumentTypeID (PK)&lt;/div&gt;&lt;div&gt;InstrumentName&lt;br&gt;&lt;/div&gt;" style="align=left;strokeColor=none;fillColor=none;spacingLeft=4;fontSize=12;verticalAlign=top;resizable=0;rotatable=0;part=1;html=1;" vertex="1" parent="f9EBJJtAMiZ83KFYTIMu-37">
          <mxGeometry y="50" width="160" height="50" as="geometry" />
        </mxCell>
        <mxCell id="f9EBJJtAMiZ83KFYTIMu-43" style="edgeStyle=orthogonalEdgeStyle;rounded=0;orthogonalLoop=1;jettySize=auto;html=1;entryX=1.008;entryY=0.213;entryDx=0;entryDy=0;entryPerimeter=0;" edge="1" parent="1" source="f9EBJJtAMiZ83KFYTIMu-33" target="f9EBJJtAMiZ83KFYTIMu-38">
          <mxGeometry relative="1" as="geometry" />
        </mxCell>
        <mxCell id="f9EBJJtAMiZ83KFYTIMu-44" style="edgeStyle=orthogonalEdgeStyle;rounded=0;orthogonalLoop=1;jettySize=auto;html=1;entryX=0.5;entryY=0;entryDx=0;entryDy=0;" edge="1" parent="1" source="f9EBJJtAMiZ83KFYTIMu-23" target="f9EBJJtAMiZ83KFYTIMu-24">
          <mxGeometry relative="1" as="geometry" />
        </mxCell>
        <mxCell id="f9EBJJtAMiZ83KFYTIMu-52" style="edgeStyle=orthogonalEdgeStyle;rounded=0;orthogonalLoop=1;jettySize=auto;html=1;entryX=0;entryY=0.5;entryDx=0;entryDy=0;curved=1;" edge="1" parent="1" source="f9EBJJtAMiZ83KFYTIMu-27" target="f9EBJJtAMiZ83KFYTIMu-32">
          <mxGeometry relative="1" as="geometry" />
        </mxCell>
        <mxCell id="f9EBJJtAMiZ83KFYTIMu-53" style="edgeStyle=orthogonalEdgeStyle;rounded=0;orthogonalLoop=1;jettySize=auto;html=1;entryX=1;entryY=0.25;entryDx=0;entryDy=0;curved=1;" edge="1" parent="1" source="f9EBJJtAMiZ83KFYTIMu-27" target="f9EBJJtAMiZ83KFYTIMu-30">
          <mxGeometry relative="1" as="geometry" />
        </mxCell>
        <mxCell id="f9EBJJtAMiZ83KFYTIMu-55" style="edgeStyle=orthogonalEdgeStyle;rounded=0;orthogonalLoop=1;jettySize=auto;html=1;entryX=0;entryY=0.111;entryDx=0;entryDy=0;entryPerimeter=0;" edge="1" parent="1" source="f9EBJJtAMiZ83KFYTIMu-14" target="f9EBJJtAMiZ83KFYTIMu-17">
          <mxGeometry relative="1" as="geometry" />
        </mxCell>
        <mxCell id="f9EBJJtAMiZ83KFYTIMu-68" style="edgeStyle=orthogonalEdgeStyle;rounded=0;orthogonalLoop=1;jettySize=auto;html=1;entryX=0.5;entryY=0;entryDx=0;entryDy=0;curved=1;" edge="1" parent="1" source="f9EBJJtAMiZ83KFYTIMu-4" target="f9EBJJtAMiZ83KFYTIMu-12">
          <mxGeometry relative="1" as="geometry" />
        </mxCell>
        <mxCell id="f9EBJJtAMiZ83KFYTIMu-69" style="edgeStyle=orthogonalEdgeStyle;rounded=0;orthogonalLoop=1;jettySize=auto;html=1;entryX=0.5;entryY=0;entryDx=0;entryDy=0;curved=1;" edge="1" parent="1" source="f9EBJJtAMiZ83KFYTIMu-4" target="f9EBJJtAMiZ83KFYTIMu-16">
          <mxGeometry relative="1" as="geometry" />
        </mxCell>
        <mxCell id="f9EBJJtAMiZ83KFYTIMu-71" style="edgeStyle=orthogonalEdgeStyle;rounded=0;orthogonalLoop=1;jettySize=auto;html=1;entryX=0.5;entryY=0;entryDx=0;entryDy=0;" edge="1" parent="1" source="f9EBJJtAMiZ83KFYTIMu-2" target="f9EBJJtAMiZ83KFYTIMu-3">
          <mxGeometry relative="1" as="geometry" />
        </mxCell>
      </root>
    </mxGraphModel>
  </diagram>
</mxfile>
